<?xml version="1.0" standalone="no"?><!DOCTYPE svg PUBLIC "-//W3C//DTD SVG 1.1//EN" "http://www.w3.org/Graphics/SVG/1.1/DTD/svg11.dtd"><svg t="1679306447765" class="icon" viewBox="0 0 1024 1024" version="1.1" xmlns="http://www.w3.org/2000/svg" p-id="15965" id="mx_n_1679306447766" xmlns:xlink="http://www.w3.org/1999/xlink" width="200" height="200"><path d="M534.7 174.9L658 293.8l33.7 21.4v153.7c16.7 2.7 33.1 7.2 48.6 13.1V121.6c0-31.7-25.7-57.3-57.3-57.3H211.9c-31.7 0-57.3 25.7-57.3 57.3v10.7c2.9-0.4 5.7-0.7 8.7-0.7h345.6l25.8 43.3z" fill="#F43B3B" p-id="15966"></path><path d="M392 722.3c0-142.1 115.2-257.1 257.1-257.1 14.5 0 28.7 1.2 42.5 3.5V315l-33.7-21.4-123.2-118.7-25.9-43.2H163.3c-31.7 0-57.3 25.7-57.3 57.3v644c0 31.7 25.7 57.3 57.3 57.3h291.4c-39.1-44.9-62.7-103.7-62.7-168z" fill="#FF6161" p-id="15967" data-spm-anchor-id="a313x.7781069.0.i10" class=""></path><path d="M508.2 131.7l183.7 183.7H555.7c-26.9 0-47.5-20.6-47.5-47.5V131.7zM754.7 638.8l-122.9 123-74.7-74.7-23.5 23.5 98.2 98.2 146.4-146.4-23.5-23.6z" fill="#FFA4A4" p-id="15968"></path><path d="M819.4 547.4c-45.6-45.5-106.2-70.6-170.5-70.6-64.5 0-125.1 25.1-170.7 70.6s-70.7 105.9-70.7 170.3c0 46.9 13.5 92.3 39.1 131.4 7.7 11.7 23.6 15.1 35.4 7.4 5.7-3.7 9.7-9.5 11.1-16.2 1.4-6.7 0.1-13.5-3.6-19.2-20.1-30.7-30.7-66.6-30.7-103.6 0-104.7 85.2-189.8 190.2-189.8 104.8 0 190.2 85.2 190.2 189.8 0 104.7-85.2 189.8-190.2 189.8-34.7 0-68.7-9.4-98.2-27.2-12.1-7.2-27.7-3.4-35.1 8.6-3.5 5.7-4.6 12.7-2.9 19.2 1.6 6.6 5.7 12.2 11.6 15.7 37.5 22.7 80.6 34.6 124.7 34.6 64.5 0 125.1-25.1 170.5-70.6 45.6-45.5 70.7-105.9 70.7-170.3-0.1-64-25.3-124.6-70.9-169.9z" fill="#FFA4A4" p-id="15969"></path><path d="M505.3 404h-321c-1.5 0-2.7-1.2-2.7-2.7v-29.5c0-1.5 1.2-2.7 2.7-2.7h321.1c1.5 0 2.7 1.2 2.7 2.7v29.5c0.1 1.4-1.3 2.7-2.8 2.7z m-90.7 142.3H180.1c-1.5 0-2.7-1.2-2.7-2.7V514c0-1.5 1.2-2.7 2.7-2.7h234.5c1.5 0 2.7 1.2 2.7 2.7v29.5c0.1 1.4-1 2.8-2.7 2.8z m-53.1 141.1H180.1c-1.5 0-2.7-1.2-2.7-2.7v-29.5c0-1.5 1.2-2.7 2.7-2.7h181.4c1.5 0 2.7 1.2 2.7 2.7v29.5c0.2 1.5-1 2.7-2.7 2.7z" fill="#FFFFFF" p-id="15970"></path></svg>