<?xml version="1.0" standalone="no"?><!DOCTYPE svg PUBLIC "-//W3C//DTD SVG 1.1//EN" "http://www.w3.org/Graphics/SVG/1.1/DTD/svg11.dtd"><svg t="1681634622881" class="icon" viewBox="0 0 1024 1024" version="1.1" xmlns="http://www.w3.org/2000/svg" p-id="6514" xmlns:xlink="http://www.w3.org/1999/xlink" width="200" height="200"><path d="M547.280528 960.727954l282.242176 0c38.968523 0 70.561056-31.591509 70.561056-70.561056L900.083759 678.485779 547.280528 678.485779 547.280528 960.727954zM123.916241 890.166899c0 38.968523 31.591509 70.561056 70.561056 70.561056l282.242176 0L476.719472 678.485779 123.916241 678.485779 123.916241 890.166899zM829.522704 308.041772 604.540649 308.041772c122.022101-8.198729 228.28324-150.226466 119.141494-229.321896C644.506896 21.340027 522.864442 138.51575 498.445286 190.286858 446.37742 108.028389 342.200756 36.835953 282.678104 96.358605c-73.013921 73.013921 27.66099 171.895999 79.202876 211.683167L194.477296 308.041772c-38.968523 0-70.561056 31.591509-70.561056 70.561056l0 229.321896 352.803231 0L476.719472 324.177264c21.106714-5.256724 38.154995-14.446014 46.823422-27.547403 20.676925 11.400654 46.101991 10.522658 59.018162 11.412934l-35.280528 0 0 299.882951L900.083759 607.925746 900.083759 378.602827C900.083759 339.633281 868.491227 308.041772 829.522704 308.041772zM395.089313 253.745145c-4.762467-1.596358-101.561094-65.905012-59.490929-104.465237 36.100196-33.085536 112.771413 41.397852 123.481336 82.473363C465.438545 256.147868 443.010743 269.824355 395.089313 253.745145zM566.32221 200.943568c8.257058-19.510356 84.074837-107.309004 122.078383-69.302389 32.142048 32.142048-12.390191 106.747209-77.187987 122.104989C581.986981 260.672928 539.846208 263.505439 566.32221 200.943568z" fill="#F95997" p-id="6515"></path></svg>