<?xml version="1.0" standalone="no"?><!DOCTYPE svg PUBLIC "-//W3C//DTD SVG 1.1//EN" "http://www.w3.org/Graphics/SVG/1.1/DTD/svg11.dtd"><svg t="1679306655119" class="icon" viewBox="0 0 1024 1024" version="1.1" xmlns="http://www.w3.org/2000/svg" p-id="19976" xmlns:xlink="http://www.w3.org/1999/xlink" width="200" height="200"><path d="M512.00182 511.99818m-238.932483 0a238.932484 238.932484 0 1 0 477.864967 0 238.932484 238.932484 0 1 0-477.864967 0Z" fill="#F9BA48" p-id="19977"></path><path d="M512.00182 136.532848c-207.03477 0-375.465332 168.430562-375.465331 375.465332S304.967051 887.463511 512.00182 887.463511s375.465332-168.430562 375.465332-375.465331S719.03659 136.532848 512.00182 136.532848z m0 716.797451c-188.211441 0-341.33212-153.120679-341.332119-341.332119s153.120679-341.33212 341.332119-341.33212 341.33212 153.120679 341.33212 341.33212-153.120679 341.33212-341.33212 341.332119zM494.937035 0h34.133212v119.468062h-34.133212zM362.984409 21.856178l32.968132-8.836406 30.918318 115.390282-32.971772 8.832765zM241.222595 77.157443l29.560272-17.064786 59.721288 103.437286-29.563913 17.064786z" fill="#333333" p-id="19978"></path><path d="M137.901817 162.029902l24.139008-24.135367 84.457399 84.461041-24.135367 24.135366zM60.05989 270.771944l17.064785-29.563913 103.437286 59.724929-17.064786 29.556631zM13.030695 395.981668l8.832765-32.968132 115.383 30.914678-8.832765 32.971772zM0.003641 494.933394h119.464421v34.133212H0.003641zM13.045259 628.00741l115.38664-30.918319 8.832765 32.971773-115.383 30.914677zM60.048967 753.213493l103.437285-59.721289 17.064786 29.563913-103.437286 59.717647zM137.890895 861.951894l84.46104-84.461041 24.139007 24.139008-84.464681 84.457399zM241.215313 946.831634l59.721288-103.437285 29.560272 17.064785-59.721288 103.437286zM362.973486 1002.121976l30.918319-115.390281 32.968131 8.836406-30.918318 115.38664zM494.937035 904.531938h34.133212v119.468062h-34.133212zM597.114577 895.528051l32.971773-8.832765 30.914678 115.386641-32.968132 8.832765zM693.452155 860.510107l29.560272-17.064786 59.721288 103.437286-29.560272 17.064785zM777.487212 801.640783l24.139008-24.135366 84.457399 84.46104-24.139007 24.139008zM843.372504 723.012427l17.068426-29.560272 103.437286 59.721288-17.064786 29.560272zM886.735336 630.1264l8.836406-32.971773 115.379359 30.914678-8.832765 32.971772zM904.531938 494.933394h119.464421v34.133212h-119.464421zM886.720773 393.8736l115.382999-30.914677 8.832765 32.968131-115.379359 30.914678zM843.405271 300.983933l103.437286-59.721289 17.064786 29.560272-103.437286 59.721288zM777.501776 222.366498l84.46104-84.46104 24.135367 24.139008-84.46104 84.457399zM693.455796 163.511739l59.721288-103.437286 29.556631 17.064786-59.721288 103.437285zM597.100014 128.439181l30.914678-115.386641 32.968131 8.832765-30.914677 115.386641zM434.917195 57.394768l33.838301-4.460073 8.912864 67.658398-33.838301 4.456432zM319.894642 92.820491l31.537268-13.059822 26.119644 63.070894-31.537268 13.059822zM217.931911 156.801604l27.062631-20.760274L286.536937 190.199359l-27.062631 20.760275zM136.030407 245.016387l20.760275-27.06263 54.158029 41.542394-20.760274 27.062631zM79.742465 351.43555l13.059822-31.533626 63.070894 26.116003-13.059822 31.537267zM52.923773 468.762778l4.467354-33.838301 67.662039 8.931068-4.470996 33.841942zM52.923773 555.233581l67.662038-8.934709 4.467355 33.841942-67.662039 8.931068zM79.760669 672.553527l63.070894-26.119644 13.059822 31.533626-63.074535 26.119644zM136.026766 779.001817l54.165312-41.553317 20.763915 27.069912-54.16167 41.553318zM217.964679 867.17655L259.521637 813.007598l27.066272 20.767557L245.030951 887.940466zM319.88736 931.190431l26.119644-63.074535 31.537268 13.059822-26.119644 63.070894zM434.931758 966.627077l8.93471-67.662039 33.838301 4.467355-8.93471 67.662039zM546.255181 903.41783l33.838301-4.460073 8.912865 67.658397-33.838301 4.456432zM646.437524 881.172078l31.537267-13.059822 26.119644 63.070894-31.537267 13.059822zM737.372041 833.778795l27.062631-20.760274 41.542395 54.158029-27.062631 20.760275zM812.971189 764.503849l20.760275-27.062631 54.15803 41.542395-20.760275 27.06263zM868.112256 677.989355l13.056181-31.537268 63.074535 26.119644-13.059822 31.537268zM898.975961 580.151736l4.467355-33.841942 67.662038 8.93471-4.470995 33.838301zM898.914066 443.87375l67.658398-8.912865 4.456432 33.841942-67.658398 8.912865zM868.112256 346.014286l63.070894-26.119644 13.059822 31.533627-63.070894 26.119644zM813.040366 259.514356l54.161671-41.553318 20.767556 27.066272-54.165311 41.556958zM737.423014 190.192078l41.553317-54.165312 27.069912 20.767557-41.553317 54.16167zM646.441165 142.831563l26.119644-63.074535 31.533626 13.059822-26.116003 63.070894zM546.320717 120.574889l8.93471-67.662039 33.838301 4.467355-8.931069 67.662038zM298.668335 409.598544h-17.064785c-32.939005 0-59.732211 26.793206-59.732211 59.73221s26.793206 59.732211 59.732211 59.732211h17.064785c14.115676 0 25.598999 11.486964 25.598999 25.598999s-11.486964 25.598999-25.598999 25.598999h-17.064785c-14.115676 0-25.598999-11.486964-25.598999-25.598999V546.131392h-34.133212v8.534213c0 32.939005 26.793206 59.732211 59.732211 59.73221h17.064785c32.939005 0 59.732211-26.793206 59.732211-59.73221s-26.793206-59.732211-59.732211-59.732211h-17.064785c-14.115676 0-25.598999-11.486964-25.598999-25.598999 0-14.115676 11.486964-25.598999 25.598999-25.598999h17.064785c14.115676 0 25.598999 11.486964 25.598999 25.598999v8.534213h34.133212v-8.534213c0.003641-32.942646-26.793206-59.735852-59.732211-59.735851zM443.735396 409.598544c-37.650298 0-68.266424 30.616126-68.266423 68.266424v136.532847h34.133212V546.131392h68.266423v68.266423h34.133212v-136.532847c0-37.650298-30.616126-68.266424-68.266424-68.266424z m-34.133211 102.399636v-34.133212c0-18.823329 15.309883-34.133212 34.133211-34.133212s34.133212 15.309883 34.133212 34.133212v34.133212h-68.266423zM580.268244 409.598544h-34.133212v204.799271h102.399636v-34.133211h-68.266424zM802.132302 443.731756V409.598544h-119.464422v204.799271h119.464422v-34.133211h-85.33121v-51.197998h85.33121v-34.133212h-85.33121v-51.201638z" fill="#333333" p-id="19979"></path></svg>