<?xml version="1.0" standalone="no"?><!DOCTYPE svg PUBLIC "-//W3C//DTD SVG 1.1//EN" "http://www.w3.org/Graphics/SVG/1.1/DTD/svg11.dtd"><svg t="1679306305088" class="icon" viewBox="0 0 1024 1024" version="1.1" xmlns="http://www.w3.org/2000/svg" p-id="11431" xmlns:xlink="http://www.w3.org/1999/xlink" width="200" height="200"><path d="M508.3648 92.2624c-230.144 0-416.7168 186.5728-416.7168 416.7168s186.5728 416.7168 416.7168 416.7168 416.7168-186.5728 416.7168-416.7168-186.5728-416.7168-416.7168-416.7168zM316.16 407.296h316.0064l-43.008-48.4864a30.70976 30.70976 0 0 1 2.6112-43.3664 30.70976 30.70976 0 0 1 43.3664 2.6112l88.32 99.584a30.66368 30.66368 0 0 1 5.0176 32.9728 30.75584 30.75584 0 0 1-28.0064 18.1248H316.16c-16.9472 0-30.72-13.7728-30.72-30.72s13.7728-30.72 30.72-30.72z m384.3584 193.5872H384.4608l43.008 48.4864a30.70976 30.70976 0 0 1-22.9888 51.0976c-8.4992 0-16.9472-3.4816-22.9888-10.3424l-88.32-99.584a30.66368 30.66368 0 0 1-5.0176-32.9728 30.75584 30.75584 0 0 1 28.0064-18.1248h384.3072c16.9472 0 30.72 13.7728 30.72 30.72s-13.7216 30.72-30.6688 30.72z" fill="#505587" p-id="11432"></path></svg>