<?xml version="1.0" standalone="no"?><!DOCTYPE svg PUBLIC "-//W3C//DTD SVG 1.1//EN" "http://www.w3.org/Graphics/SVG/1.1/DTD/svg11.dtd"><svg t="1679306107595" class="icon" viewBox="0 0 1024 1024" version="1.1" xmlns="http://www.w3.org/2000/svg" p-id="6950" xmlns:xlink="http://www.w3.org/1999/xlink" width="200" height="200"><path d="M901.0176 206.2336a12.9024 12.9024 0 0 0-17.0496-6.5024l-8.6528 3.84-3.84-8.6528a12.9024 12.9024 0 1 0-23.552 10.5472l3.84 8.6528-8.6528 3.84a12.9024 12.9024 0 1 0 10.5472 23.552l8.6528-3.84 3.84 8.6528a12.8768 12.8768 0 0 0 17.0496 6.5024 12.9024 12.9024 0 0 0 6.5024-17.0496l-3.84-8.6528 8.6528-3.84a12.9024 12.9024 0 0 0 6.5024-17.0496z" fill="#E2E5F1" p-id="6951"></path><path d="M127.1808 898.1504m-33.3312 0a33.3312 33.3312 0 1 0 66.6624 0 33.3312 33.3312 0 1 0-66.6624 0Z" fill="#E2E5F1" p-id="6952"></path><path d="M934.8608 884.2752l-123.2384-115.3536a20.46976 20.46976 0 0 0-27.9552 29.9008l123.2384 115.3536c3.9424 3.6864 8.96 5.5296 13.9776 5.5296a20.46976 20.46976 0 0 0 13.9776-35.4304z" fill="#E2E5F1" p-id="6953"></path><path d="M184.9344 173.5168m-33.3312 0a33.3312 33.3312 0 1 0 66.6624 0 33.3312 33.3312 0 1 0-66.6624 0Z" fill="#FAC573" p-id="6954"></path><path d="M214.9376 332.3392l380.16-219.7504c42.752-24.7296 97.3824-10.6496 122.9312 31.6416l119.3984 197.8368-622.4896-9.728z" fill="#FAC573" p-id="6955"></path><path d="M624.4864 110.6944l95.3856 149.8624H360.96L280.5248 314.2656h556.9024L715.776 127.3344a56.9088 56.9088 0 0 0-61.5936-24.1152l-29.696 7.4752z" fill="#EF981A" p-id="6956"></path><path d="M837.4272 362.5472h-0.3072l-622.4384-9.728a20.46464 20.46464 0 0 1-9.9328-38.1952l380.16-219.7504c52.0192-30.0544 119.6544-12.6976 150.6816 38.7584l119.3984 197.8368c3.84 6.4 3.9424 14.336 0.2048 20.7872a20.46976 20.46976 0 0 1-17.7664 10.2912zM289.3312 313.0368l511.488 7.9872-100.3008-166.1952c-19.6096-32.4608-62.2592-43.4688-95.1296-24.4736L289.3312 313.0368z" fill="#211D38" p-id="6957"></path><path d="M794.0096 889.7024H229.1712c-62.464 0-113.1008-50.6368-113.1008-113.1008V427.3664c0-62.464 50.6368-113.1008 113.1008-113.1008h564.8384c62.464 0 113.1008 50.6368 113.1008 113.1008v349.2352c0 62.464-50.6368 113.1008-113.1008 113.1008z" fill="#FF6C73" p-id="6958"></path><path d="M293.7344 675.584l12.3904 25.1392c0.8704 1.7408 2.56 2.9696 4.4544 3.2768l27.7504 4.0448c4.864 0.7168 6.8096 6.7072 3.2768 10.1376l-20.0704 19.5584c-1.3824 1.3824-2.048 3.328-1.6896 5.2736l4.7616 27.648c0.8192 4.864-4.2496 8.5504-8.6016 6.2464l-24.832-13.056c-1.7408-0.9216-3.7888-0.9216-5.5296 0l-24.832 13.056c-4.352 2.304-9.472-1.4336-8.6016-6.2464l4.7616-27.648c0.3072-1.9456-0.3072-3.8912-1.6896-5.2736l-20.0704-19.5584c-3.5328-3.4304-1.5872-9.4208 3.2768-10.1376l27.7504-4.0448c1.9456-0.256 3.6352-1.4848 4.4544-3.2768l12.3904-25.1392c2.2016-4.4032 8.4992-4.4032 10.6496 0zM432.9472 519.2192l12.3904 25.1392c0.8704 1.7408 2.56 2.9696 4.4544 3.2768l27.7504 4.0448c4.864 0.7168 6.8096 6.7072 3.2768 10.1376L460.8 581.376c-1.3824 1.3824-2.048 3.328-1.6896 5.2736l4.7616 27.648c0.8192 4.864-4.2496 8.5504-8.6016 6.2464l-24.832-13.056c-1.7408-0.9216-3.7888-0.9216-5.5296 0l-24.832 13.056c-4.352 2.304-9.472-1.4336-8.6016-6.2464l4.7616-27.648c0.3072-1.9456-0.3072-3.8912-1.6896-5.2736l-20.0704-19.5584c-3.5328-3.4304-1.5872-9.4208 3.2768-10.1376l27.7504-4.0448c1.9456-0.256 3.6352-1.4848 4.4544-3.2768l12.3904-25.1392c2.1504-4.4032 8.448-4.4032 10.5984 0zM736.7168 405.9648l12.3904 25.1392c0.8704 1.7408 2.56 2.9696 4.4544 3.2768l27.7504 4.0448c4.864 0.7168 6.8096 6.7072 3.2768 10.1376l-20.0704 19.5584c-1.3824 1.3824-2.048 3.328-1.6896 5.2736l4.7616 27.648c0.8192 4.864-4.2496 8.5504-8.6016 6.2464l-24.832-13.056c-1.7408-0.9216-3.7888-0.9216-5.5296 0l-24.832 13.056c-4.352 2.304-9.472-1.4336-8.6016-6.2464l4.7616-27.648c0.3072-1.9456-0.3072-3.8912-1.6896-5.2736l-20.0704-19.5584c-3.5328-3.4304-1.5872-9.4208 3.2768-10.1376l27.7504-4.0448c1.9456-0.256 3.6352-1.4848 4.4544-3.2768l12.3904-25.1392c2.2016-4.4032 8.4992-4.4032 10.6496 0zM751.9744 699.648l12.3904 25.1392c0.8704 1.7408 2.56 2.9696 4.4544 3.2768l27.7504 4.0448c4.864 0.7168 6.8096 6.7072 3.2768 10.1376l-20.0704 19.5584c-1.3824 1.3824-2.048 3.328-1.6896 5.2736l4.7616 27.648c0.8192 4.864-4.2496 8.5504-8.6016 6.2464l-24.832-13.056c-1.7408-0.9216-3.7888-0.9216-5.5296 0l-24.832 13.056c-4.352 2.304-9.472-1.4336-8.6016-6.2464l4.7616-27.648c0.3072-1.9456-0.3072-3.8912-1.6896-5.2736l-20.0704-19.5584c-3.5328-3.4304-1.5872-9.4208 3.2768-10.1376l27.7504-4.0448c1.9456-0.256 3.6352-1.4848 4.4544-3.2768l12.3904-25.1392c2.1504-4.4544 8.448-4.4544 10.6496 0z" fill="#FF866E" p-id="6959"></path><path d="M786.176 319.0784s56.8832 52.9408 56.8832 99.9936v354.9184c0 31.3856-21.5552 54.8864-82.3808 54.8864H230.2464c-70.6048 0-108.8512-53.9136-108.8512-53.9136s-28.8256 114.7392 159.1296 114.7392h487.0144c56.8832 0 139.5712-19.6096 139.5712-143.1552V427.9296c0-57.8048-46.4384-111.8208-120.9344-108.8512z" fill="#FF4E51" p-id="6960"></path><path d="M687.4624 703.2832h219.648V500.6336h-219.648c-55.9616 0-101.3248 45.3632-101.3248 101.3248 0.0512 55.9616 45.3632 101.3248 101.3248 101.3248z" fill="#7F9AFF" p-id="6961"></path><path d="M843.008 506.88h51.6608v202.0864h-51.6608z" fill="#5078FF" p-id="6962"></path><path d="M794.0096 293.7856H229.1712c-73.6768 0-133.5808 59.904-133.5808 133.5808v349.2352c0 73.6768 59.904 133.5808 133.5808 133.5808h564.8384c73.6768 0 133.5808-59.904 133.5808-133.5808V427.3664c0-73.6768-59.904-133.5808-133.5808-133.5808z m0 575.4368H229.1712c-51.0464 0-92.6208-41.5744-92.6208-92.6208V427.3664c0-51.0464 41.5232-92.6208 92.6208-92.6208h564.8384c51.0464 0 92.6208 41.5744 92.6208 92.6208v52.8384h-199.168c-67.1744 0-121.8048 54.6304-121.8048 121.8048s54.6304 121.8048 121.8048 121.8048h199.168v52.8384c0 50.9952-41.5232 92.5696-92.6208 92.5696z m92.6208-186.4192h-199.168c-44.5952 0-80.8448-36.2496-80.8448-80.8448s36.2496-80.8448 80.8448-80.8448h199.168v161.6896z" fill="#211D38" p-id="6963"></path><path d="M698.0096 655.8208c-29.696 0-53.8624-24.1664-53.8624-53.8624s24.1664-53.8624 53.8624-53.8624 53.8624 24.1664 53.8624 53.8624-24.1664 53.8624-53.8624 53.8624z m0-66.7648c-7.1168 0-12.9024 5.7856-12.9024 12.9024s5.7856 12.9024 12.9024 12.9024c7.1168 0 12.9024-5.7856 12.9024-12.9024s-5.7856-12.9024-12.9024-12.9024zM390.0416 454.912H244.9408c-11.3152 0-20.48-9.1648-20.48-20.48s9.1648-20.48 20.48-20.48h145.1008c11.3152 0 20.48 9.1648 20.48 20.48s-9.1648 20.48-20.48 20.48z" fill="#211D38" p-id="6964"></path><path d="M151.6032 689.2544a12.8 12.8 0 0 1-12.8-12.8v-66.6112a12.8 12.8 0 0 1 25.6 0v66.6112c0 7.1168-5.7344 12.8-12.8 12.8zM151.6032 554.9056a12.8 12.8 0 0 1-12.8-12.8V427.008c0-50.0224 40.704-90.7264 90.7264-90.7264h58.88a12.8 12.8 0 0 1 0 25.6h-58.88c-35.8912 0-65.1264 29.2352-65.1264 65.1264v115.0976a12.8 12.8 0 0 1-12.8 12.8zM456.0896 245.248c-4.4544 0-8.7552-2.304-11.1104-6.4-3.5328-6.144-1.4336-13.9776 4.7104-17.4592l138.5472-79.7184c6.144-3.5328 13.9776-1.4336 17.4592 4.7104 3.5328 6.144 1.4336 13.9776-4.7104 17.4592L462.4896 243.5584c-2.048 1.1776-4.2496 1.6896-6.4 1.6896z" fill="#FFFFFF" p-id="6965"></path></svg>