<?xml version="1.0" standalone="no"?><!DOCTYPE svg PUBLIC "-//W3C//DTD SVG 1.1//EN" "http://www.w3.org/Graphics/SVG/1.1/DTD/svg11.dtd"><svg t="1679387739351" class="icon" viewBox="0 0 1024 1024" version="1.1" xmlns="http://www.w3.org/2000/svg" p-id="3979" xmlns:xlink="http://www.w3.org/1999/xlink" width="200" height="200"><path d="M304 362.1V232c0-34.9 13.6-67.7 38.3-92.4 24.7-24.7 57.5-38.3 92.4-38.3h151.5c34.9 0 67.8 13.6 92.4 38.3 24.7 24.7 38.3 57.5 38.3 92.4v18.1h37.3V232c0-44.9-17.5-87.1-49.2-118.8C673.2 81.5 631 64 586.2 64H434.7c-44.9 0-87.1 17.5-118.9 49.2-31.7 31.8-49.2 74-49.2 118.8v130.1h-92.3v448.1c0 38.2 14.6 76.5 43.8 105.6 29.2 29.2 67.4 43.7 105.6 43.7h373.5c38.3 0 76.5-14.6 105.6-43.7 29.1-29.2 43.7-67.4 43.7-112.8V362.1H304zM809.2 803c0 35.5-11 64.6-32.8 86.4-21.2 21.2-49.3 32.8-79.2 32.8H323.7c-29.9 0-58-11.7-79.2-32.8-21.2-21.2-32.8-49.3-32.8-79.2V399.4h597.5V803z" fill="#F95997" p-id="3980"></path><path d="M491.8 676.9v133.3h37.3V676.9c32.2-8.3 56-37.3 56-72 0-41.3-33.4-74.7-74.7-74.7-41.2 0-74.7 33.4-74.7 74.7 0.1 34.7 23.9 63.6 56.1 72z" fill="#F95997" p-id="3981"></path></svg>