<?xml version="1.0" standalone="no"?><!DOCTYPE svg PUBLIC "-//W3C//DTD SVG 1.1//EN" "http://www.w3.org/Graphics/SVG/1.1/DTD/svg11.dtd"><svg t="1679387909833" class="icon" viewBox="0 0 1024 1024" version="1.1" xmlns="http://www.w3.org/2000/svg" p-id="11631" xmlns:xlink="http://www.w3.org/1999/xlink" width="200" height="200"><path d="M704 288h131.008c8.64 0 15.808 2.688 21.504 8a35.072 35.072 0 0 1 10.496 20.992L886.016 512h-64l-16-160H704V448a31.168 31.168 0 0 1-8.96 23.04 31.168 31.168 0 0 1-23.04 8.96 31.168 31.168 0 0 1-23.04-8.96A31.168 31.168 0 0 1 640 448V352H384V448a31.168 31.168 0 0 1-8.96 23.04 31.168 31.168 0 0 1-23.04 8.96 31.168 31.168 0 0 1-23.04-8.96A31.168 31.168 0 0 1 320 448V352H217.984l-51.008 512h344.96v64H131.072a30.4 30.4 0 0 1-23.552-10.496 28.928 28.928 0 0 1-7.488-24.512l57.024-576a35.328 35.328 0 0 1 10.496-20.992 30.08 30.08 0 0 1 21.504-8H320v-22.016c1.344-57.344 20.032-104.96 56-142.976C411.968 84.992 457.28 65.28 512 64c54.656 1.28 100.032 20.992 136 59.008 35.968 37.952 54.656 85.632 56 142.976V288z m-64 0v-22.016c-0.64-39.36-13.184-72-37.504-97.984a122.24 122.24 0 0 0-180.992 0c-24.32 25.984-36.8 58.624-37.504 97.984V288h256z m200.96 484.032L768 697.92V928a31.168 31.168 0 0 1-8.96 23.04 31.168 31.168 0 0 1-23.04 8.96 31.168 31.168 0 0 1-23.04-8.96 31.168 31.168 0 0 1-8.96-23.04v-230.016l-72.96 73.984a31.168 31.168 0 0 1-31.488 8.064 29.76 29.76 0 0 1-22.08-22.528 30.848 30.848 0 0 1 7.488-30.464l128-128a31.616 31.616 0 0 1 23.04-10.048c8.64 0 16.32 3.328 23.04 10.048l128 128a30.976 30.976 0 0 1 7.488 30.464 29.696 29.696 0 0 1-22.08 22.464 31.104 31.104 0 0 1-31.488-7.936z" fill="#F95997" p-id="11632"></path></svg>