<?xml version="1.0" encoding="UTF-8"?>
<svg width="48px" height="48px" viewBox="0 0 48 48" version="1.1" xmlns="http://www.w3.org/2000/svg" xmlns:xlink="http://www.w3.org/1999/xlink">
    <title>PCH5完成</title>
    <g id="切图" stroke="none" stroke-width="1" fill="none" fill-rule="evenodd">
        <g id="画板" transform="translate(-579.000000, -465.000000)" fill-rule="nonzero">
            <g id="check-circle-fill" transform="translate(579.000000, 465.000000)">
                <rect id="矩形" fill="#000000" opacity="0" x="0" y="0" width="48" height="48"></rect>
                <path d="M24,3 C12.403125,3 3,12.403125 3,24 C3,35.596875 12.403125,45 24,45 C35.596875,45 45,35.596875 45,24 C45,12.403125 35.596875,3 24,3 Z M33.0703125,17.1421875 L23.1984375,30.8296875 C22.603125,31.659375 21.3703125,31.659375 20.775,30.8296875 L14.9296875,22.7296875 C14.7515625,22.48125 14.9296875,22.134375 15.234375,22.134375 L17.4328125,22.134375 C17.9109375,22.134375 18.365625,22.3640625 18.646875,22.7578125 L21.984375,27.3890625 L29.353125,17.1703125 C29.634375,16.78125 30.084375,16.546875 30.5671875,16.546875 L32.765625,16.546875 C33.0703125,16.546875 33.2484375,16.89375 33.0703125,17.1421875 Z" id="形状" fill="#66B949"></path>
            </g>
        </g>
    </g>
</svg>