<?xml version="1.0" standalone="no"?><!DOCTYPE svg PUBLIC "-//W3C//DTD SVG 1.1//EN" "http://www.w3.org/Graphics/SVG/1.1/DTD/svg11.dtd"><svg t="1681388024891" class="icon" viewBox="0 0 1024 1024" version="1.1" xmlns="http://www.w3.org/2000/svg" p-id="7931" id="mx_n_1681388024892" xmlns:xlink="http://www.w3.org/1999/xlink" width="200" height="200"><path d="M510.81216 510.83776m-490.65984 0a490.65984 490.65984 0 1 0 981.31968 0 490.65984 490.65984 0 1 0-981.31968 0Z" fill="#F2F2F2" p-id="7932"></path><path d="M690.48832 374.77376H331.13088c-32.06144 0-58.05568 25.99424-58.05568 58.05568v507.23328c70.43584 39.09632 151.45984 61.43488 237.73184 61.43488s167.296-22.33856 237.73184-61.43488V432.82944c0.00512-32.06656-25.984-58.05568-58.05056-58.05568z" fill="#DFAD79" p-id="7933"></path><path d="M365.42464 533.20192a18.8672 18.8672 0 0 1-18.8672 18.8672H229.76512a18.8672 18.8672 0 0 1-18.8672-18.8672V356.5312a18.8672 18.8672 0 0 1 18.8672-18.8672h116.79232a18.8672 18.8672 0 0 1 18.8672 18.8672v176.67072zM810.7264 533.20192a18.8672 18.8672 0 0 1-18.8672 18.8672h-116.79232a18.8672 18.8672 0 0 1-18.8672-18.8672V356.5312a18.8672 18.8672 0 0 1 18.8672-18.8672h116.79232a18.8672 18.8672 0 0 1 18.8672 18.8672v176.67072z" fill="#C19165" p-id="7934"></path><path d="M398.2848 629.72416m-25.7536 0a25.7536 25.7536 0 1 0 51.5072 0 25.7536 25.7536 0 1 0-51.5072 0Z" fill="#FFFFFF" p-id="7935"></path><path d="M403.74272 630.50752m-11.70432 0a11.70432 11.70432 0 1 0 23.40864 0 11.70432 11.70432 0 1 0-23.40864 0Z" fill="#303030" p-id="7936"></path><path d="M625.78176 617.35424m-25.7536 0a25.7536 25.7536 0 1 0 51.5072 0 25.7536 25.7536 0 1 0-51.5072 0Z" fill="#FFFFFF" p-id="7937"></path><path d="M629.6832 608.77312m-11.70432 0a11.70432 11.70432 0 1 0 23.40864 0 11.70432 11.70432 0 1 0-23.40864 0Z" fill="#303030" p-id="7938"></path><path d="M702.88896 790.9632c-2.06336-35.0464-20.61824-39.168-30.9248-37.10976-10.30656 2.06336-28.86144 24.73984-80.40448 26.8032-35.8656 1.4336-53.7344-13.08672-61.30176-22.06208 0.04608-13.952-0.07168-27.64288-0.28672-40.61696a4812.96384 4812.96384 0 0 1 28.60032-21.84704c8.24832-6.18496 26.8032-32.98816 14.43328-53.60128-10.19392-16.99328-46.46912-14.38208-58.92608-12.93824-17.21856-1.08544-46.57152-0.6656-55.14752 13.62432-12.36992 20.61824 6.18496 47.41632 14.43328 53.60128 6.49216 4.86912 24.43776 18.64704 31.80032 24.30464a2051.1744 2051.1744 0 0 0-0.81408 34.66752c-5.4016 7.89504-22.8608 27.20256-63.96928 25.55392-51.53792-2.06336-70.0928-24.73984-80.40448-26.8032s-28.86144 2.06336-30.9248 37.10976c-2.06336 35.0464 57.72288 173.17376 175.23712 131.9424 4.7616-1.66912 8.68352-7.38816 11.92448-16.06144 3.06176 8.25856 6.81472 13.75232 11.4432 15.37536 117.504 41.23648 177.29024-96.89088 175.232-131.9424z" fill="#303030" p-id="7939"></path><path d="M577.83296 805.56544s-49.14176-19.26656-61.36832-29.25056c-0.1536-2.7392-3.18976-2.7392-3.34848 0-12.22144 9.97888-61.36832 29.25056-61.36832 29.25056s-7.61856 66.02752-3.1744 116.18304c3.96288 44.73344 54.26688 51.57376 65.1264 52.5312 0 0.03072 2.17088 0.03072 2.17088 0 10.85952-0.96256 61.16352-7.80288 65.1264-52.5312 4.4544-50.15552-3.16416-116.18304-3.16416-116.18304z" fill="#CC3333" p-id="7940"></path><path d="M580.1472 190.39232c11.78112 4.84352 13.21984 23.22944 4.5568 31.88736-10.0608 10.0608-22.46144 13.9776-36.44416 0a25.5488 25.5488 0 0 1-7.44448-17.90464 301.7216 301.7216 0 0 0-24.66816-1.1008c-11.6736 0-23.23456 0.86016-33.34656 1.9456a25.53856 25.53856 0 0 1-7.424 17.05984c-12.34432 12.3392-26.38336 10.0608-36.44928 0-8.6528-8.66304-7.45472-23.61344 4.5568-31.89248-11.776-4.84352-13.2096-23.22944-4.5568-31.88736 10.06592-10.06592 22.46144-13.98272 36.44416 0a25.53856 25.53856 0 0 1 7.42912 17.06496c10.0608 1.0752 21.53984 1.94048 33.14688 1.94048 8.48896 0 16.95744-0.45056 24.86784-1.10592a25.5488 25.5488 0 0 1 7.44448-17.89952c12.34432-12.3392 26.38336-10.06592 36.44928 0 8.6528 8.65792 7.4496 23.61344-4.5568 31.89248z m0.65024 19.32288h-0.0256l0.0256-0.19968v0.2048z" fill="#DFAD79" p-id="7941"></path></svg>