<?xml version="1.0" encoding="UTF-8"?>
<svg width="40px" height="40px" viewBox="0 0 40 40" version="1.1" xmlns="http://www.w3.org/2000/svg" xmlns:xlink="http://www.w3.org/1999/xlink">
    <title>share</title>
    <g id="切图与icon" stroke="none" stroke-width="1" fill="none" fill-rule="evenodd">
        <g id="规范汇总" transform="translate(-129.000000, -596.000000)">
            <g id="share" transform="translate(129.000000, 596.000000)">
                <rect id="share-(style)" stroke="#353945" stroke-width="2" fill-rule="nonzero" x="1" y="1" width="38" height="38" rx="19"></rect>
                <g id="icons/Close/Line" transform="translate(13.000000, 13.000000)" fill="#FCFCFD">
                    <path d="M0.292893596,0.292893596 C0.683418292,-0.0976309988 1.31658242,-0.0976309988 1.70711311,0.292893596 L7.00001254,5.58580002 L12.292922,0.292893596 C12.6834227,-0.0976311988 13.3166238,-0.0976311988 13.7071245,0.292893596 C14.0976252,0.683418292 14.0976252,1.31658242 13.7071245,1.70711311 L8.41422506,7.00001254 L13.7071245,12.292922 C14.0976252,12.6834227 14.0976252,13.3166238 13.7071245,13.7071245 C13.3166238,14.0976252 12.6834227,14.0976252 12.292922,13.7071245 L7.00001254,8.41422506 L1.70711311,13.7071245 C1.31658242,14.0976252 0.683419292,14.0976252 0.292893596,13.7071245 C-0.0976309988,13.3166238 -0.0976309988,12.6834227 0.292893596,12.292922 L5.58580002,7.00001254 L0.292893596,1.70711311 C-0.0976311988,1.31658242 -0.0976311988,0.683419292 0.292893596,0.292893596 Z" id="Shape"></path>
                </g>
            </g>
        </g>
    </g>
</svg>