<?xml version="1.0" encoding="UTF-8"?>
<svg width="24px" height="24px" viewBox="0 0 24 24" version="1.1" xmlns="http://www.w3.org/2000/svg" xmlns:xlink="http://www.w3.org/1999/xlink">
    <title>H5打开链接</title>
    <g id="切图" stroke="none" stroke-width="1" fill="none" fill-rule="evenodd">
        <g id="画板" transform="translate(-304.000000, -465.000000)" fill="#000000" fill-rule="nonzero">
            <g id="分享" transform="translate(304.000000, 465.000000)">
                <rect id="矩形" opacity="0" x="0" y="0" width="24" height="24"></rect>
                <path d="M12,1.71428571 L12,3.42857142 C7.266,3.42857142 3.42857142,7.266 3.42857142,12 C3.42857142,16.734 7.266,20.5714286 12,20.5714286 C16.734,20.5714286 20.5714286,16.734 20.5714286,12 L22.2857143,12 C22.2857143,17.6802857 17.6802857,22.2857143 12,22.2857143 C6.31971429,22.2857143 1.71428571,17.6802857 1.71428571,12 C1.71428571,6.31971429 6.31971429,1.71428571 12,1.71428571 Z M20.3074286,4.57971429 L12.3548571,12.5322857 L11.1428571,11.3202857 L19.0345714,3.42857142 L14.3074286,3.42857142 L14.3074286,1.71428571 L22.0217143,1.71428571 L22.0217143,9.42857142 L20.3074286,9.42857142 L20.3074286,4.57971429 Z" id="形状"></path>
            </g>
        </g>
    </g>
</svg>